# xmcd
#
# Track frame offsets: 
#        150
#        24323
#        49650
#        73688
#        92569
#        125024
#        154242
#        176773
#        206017
#        224350
#        251970
#
# Disc length: 3777 seconds
#
# Revision: 3
# Processed by: cddbd v1.5.2PL0 Copyright (c) Steve Scherf et al.
# Submitted via: ExactAudioCopy v1.3
#
DISCID=a20ebf0b
DTITLE=鍾氏兄弟 - 極 Edge CD1
DYEAR=2014
DGENRE=Pop
TTITLE0=鍾氏兄弟 feat. Ghost Style and Kwokkin - 瑪門
TTITLE1=麻醉式快樂
TTITLE2=高速鐵路
TTITLE3=鍾氏兄弟 feat. 大AL and 球 - 時代的顛覆者
TTITLE4=鍾氏兄弟 feat. 夏昭聲 and Joey Tang - 說不出的未來
TTITLE5=光復精緻
TTITLE6=黑膠.人生
TTITLE7=Re-imagine
TTITLE8=鍾氏兄弟 feat. 岑寧兒 - 美麗故事
TTITLE9=Just Love
TTITLE10=One World
EXTD=環球唱片(香港) 2014 Edge (SACD) (Limited Edition) \n\n日本壓製 限量發行 \n本屆 Hi
EXTD=Fi 展 \n推出的實力作品 Edge-SACD 
EXTT0=
EXTT1=
EXTT2=
EXTT3=
EXTT4=
EXTT5=
EXTT6=
EXTT7=
EXTT8=
EXTT9=
EXTT10=
PLAYORDER=
